<svg width="202" height="60" fill="none" xmlns="http://www.w3.org/2000/svg"><g clip-path="url(#a)"><path d="M59.883 24.21a25.808 25.808 0 0 0-8.053-10.552 25.493 25.493 0 0 0-12.193-5.105 25.409 25.409 0 0 0-13.093 1.699 25.636 25.636 0 0 0-10.515 8.05 25.951 25.951 0 0 0-5.144 12.264 26.04 26.04 0 0 0 1.595 13.218 25.817 25.817 0 0 0 7.909 10.662 25.5 25.5 0 0 0 12.122 5.272c-.58-2.109-1.17-4.439-1.69-6.91a32.23 32.23 0 0 0 4.76 2.572s.12 2.179.28 4.61a25.269 25.269 0 0 0 5.33-.474 2.174 2.174 0 0 1 0-.767c.29-1.886 1.09-5.286 1.25-7.475a15.335 15.335 0 0 0 2.9-3.742l-.06.444c-.55 4.297-1.7 8.887-2.4 10.158-.226.42-.505.81-.83 1.16a25.549 25.549 0 0 0 9.941-4.808 25.817 25.817 0 0 0 7.021-8.573 26.065 26.065 0 0 0 .87-21.703Zm-1.47 3.823c-.44.434-1.35.726-1.5-.585-.15-1.311-.19-2.23-.19-2.23s-1.93-3.46-2.65-3.5c-.72-.04-5.831 3.5-7.181 5.044-1.17 1.301-1.4 1.21-1.4 3.5 0 1.725.22 8.242.1 13.225l-8.15 2.189a63.539 63.539 0 0 1-7.801 1.735l-1-5.881h-.14l-2.57-13.285s-3.81-1.453-5.21-1.846a3.73 3.73 0 0 0-4 .635 5.111 5.111 0 0 0-1.285 1.752 5.153 5.153 0 0 0-.446 2.132c.212.469.373.96.48 1.463.05.484-1.2.433-2 .433s-.92-1.452-.29-3.157c.492-1.31 1.1-2.574 1.82-3.773a11.971 11.971 0 0 1 2.07-2.915s.14-.343 1.25-.242c1.11.1 7.28.434 7.28.434l.05-2.29a141.559 141.559 0 0 1 20.242-1.352v1.846a22.362 22.362 0 0 1 8.14-2.017.904.904 0 0 1 .77.393c.34.434 2.41 3.026 2.65 3.4.673.969 1.284 1.98 1.83 3.026a6.32 6.32 0 0 1-.87 1.856v.01Z" fill="#FDC305"/><path d="M56.463 21.86c.47.605.88 1.14 1 1.3.672.97 1.283 1.98 1.83 3.027-.19.64-.48 1.247-.86 1.796-.44.433-1.35.726-1.5-.586-.15-1.31-.21-2.178-.21-2.178s-1.93-3.46-2.65-3.5c-.72-.041-5.83 3.5-7.18 5.043-1.17 1.301-1.4 1.21-1.4 3.5 0 1.513.17 6.708.13 11.328 1.81.202 4.47.707 5.27 1.897 0 0-.29-7.243 7.81-3.45 0 0 .28-9.876 11.46-7.344a43.781 43.781 0 0 0-13.7-10.834Zm-10.531-2.34a92.02 92.02 0 0 0-1.4-16.675s-.15-1.312-.87-.242a14.475 14.475 0 0 0-1.2 4.035 70.276 70.276 0 0 0-12.82.343c-.82-2.775-2.22-4.035-2.89-3.703-.67.333-.75 3.31-.75 3.31l-.33 14.283a141.56 141.56 0 0 1 20.26-1.352Z" fill="#F06351"/><path d="M45.352 47.532c.13-1.08.2-2.512.24-4.096l-8.15 2.19a63.531 63.531 0 0 1-7.8 1.785l1.11 5.044c0 .11 0 .221.07.333a32.13 32.13 0 0 0 4.76 2.572 42.347 42.347 0 0 0 6.88-4.166v.06a15.333 15.333 0 0 0 2.89-3.722Z" fill="#E55645"/><path d="M32.002 16.362c-.05-.101 1 .686 1.41.928.41.242.61.424.61.595 0 .171-.26.343-.62.343s-.92-.121-1-.262c-.08-.142.6 0 .94 0h.29a8.112 8.112 0 0 1-1.63-1.604Zm7.5.111s-1 1.291-1.09 1.352c-.09.06-.17.343.19.292a8.025 8.025 0 0 0 1.22-.282c.11-.061.07-.202-.12-.182-.19.02-.68.05-1 .111l.85-1.281s.03-.121-.05-.01Zm-3.14 6.163a2.31 2.31 0 0 0 1.09-1.009c.28-.665 0-.918-.44-1.008a2.432 2.432 0 0 0-1.75.343c-.39.373-.34.736 0 1.008.337.268.707.491 1.1.666Z" fill="#000"/><path d="M36.002 23.907a2.066 2.066 0 0 1-.46.605 1.721 1.721 0 0 1-1 .384 2.167 2.167 0 0 1-1.54-.444 2.004 2.004 0 0 1-.53-.454 1 1 0 0 0-.36-.252s.75 4.146 2.57 4.812c1.82.665 2.16-.767 2.21-1.15a5.718 5.718 0 0 0-.82-3.269c0-.302-.02-.1-.07-.232Z" fill="#F06351"/><path d="M34.301 25.057a3.482 3.482 0 0 1-2.35-1.442.152.152 0 0 1 0-.202.14.14 0 0 1 .2 0 3.232 3.232 0 0 0 2.11 1.321 2.099 2.099 0 0 0 1.64-1.008l.14-.192.1.222s.38.767 1 .807c.62.04 1.06-.424 1.63-1.301a.144.144 0 0 1 .2-.04.145.145 0 0 1 .04.201c-.666.989-1.296 1.463-1.89 1.422a1.541 1.541 0 0 1-1.12-.736 2.266 2.266 0 0 1-1.7.948Z" fill="#000"/><path d="M36.262 38.635c2.07 0 3.75-1.694 3.75-3.783 0-2.09-1.68-3.783-3.75-3.783-2.072 0-3.75 1.694-3.75 3.783 0 2.09 1.678 3.783 3.75 3.783Z" fill="#FDC305"/><path d="m41.232 31.775-3.13 1.322 1.15-5.68-7.5 9.846 3.13-1.322-1.15 5.69 7.5-9.856Zm-7.39 3.864 4.16-5.457-.81 4.035 2-.828-4.19 5.468.81-4.035-1.97.817Zm-1.401-1.483c.62 0 1.12-.506 1.12-1.13 0-.624-.5-1.13-1.12-1.13-.618 0-1.12.506-1.12 1.13 0 .624.502 1.13 1.12 1.13Zm6.521 4.096c.436 0 .79-.357.79-.797a.793.793 0 0 0-.79-.797.793.793 0 0 0-.79.797c0 .44.354.797.79.797Zm.96-2.189c.193 0 .35-.159.35-.354a.352.352 0 0 0-.35-.353.352.352 0 0 0-.35.353c0 .195.157.353.35.353Z" fill="#111"/><path d="M45.882 21.345a57.737 57.737 0 0 0-5.09 5.256 31.988 31.988 0 0 1-5.31 4.942c-.22-.534-1.63-1.533-1.63-1.533s-3.14-2.169-5.2-3.873a32.023 32.023 0 0 1-3.14-3.027l-2-.11a22.646 22.646 0 0 0 12 8.917c.86-.142 3.28-1.887 5.09-3.31a57.904 57.904 0 0 0 6-5.96 6.45 6.45 0 0 0 1.14-2.018c-1.14.383-1.86.716-1.86.716Z" fill="#F06351"/><path d="m65.223 3.53-8.46 9.523-1.22-2.007L63.693 0l1.53 3.53Zm-2.57 13.88 5.54-4.145-.78-3.773-5.4 4.852.64 3.067Zm-2.73 32.392 6.13 3.207 3.01-2.36-6.69-2.774-2.45 1.927ZM1.95 6.022l3.07-3.39 9.29 9.08-1.22 2.3-11.14-7.99Zm5.43 10.4-4.7-3.157-2.4 3.904 5.15 2.42 1.95-3.167Zm6.53 36.588-4.55 3.379L12.16 60l4.02-4.055-2.27-2.936Z" fill="#FDC305"/><path d="M25.931 28.245s-3.81-1.453-5.21-1.846a3.73 3.73 0 0 0-4 .635 5.11 5.11 0 0 0-1.285 1.752 5.152 5.152 0 0 0-.445 2.132c.211.469.372.96.48 1.463.05.484-1.2.433-2 .433s-.92-1.452-.29-3.157A23.1 23.1 0 0 1 15 25.884C9.55 28.75 0 35.367 0 35.367a45.433 45.433 0 0 1 8.19.242c5.25.534 5 4.71 5 4.71a38.335 38.335 0 0 1 5.63-1.12c2.121-.14 2.271 2.14 2.271 2.14l.53 3.893a18.342 18.342 0 0 1 2.65-2.38 6.023 6.023 0 0 1 4.38-1.312l-2.72-13.295Z" fill="#F06351"/><path d="M85.664 42.367a8.417 8.417 0 0 1-1.4-5.235v-7.566a8.55 8.55 0 0 1 1.38-5.286c.927-1.203 2.51-1.802 4.75-1.795 2.24.007 3.757.535 4.55 1.584a6.82 6.82 0 0 1 1.33 4.529v1.775h-4.14v-1.927a10.173 10.173 0 0 0-.13-1.513 1.7 1.7 0 0 0-.47-.958 1.556 1.556 0 0 0-1.15-.373 1.45 1.45 0 0 0-.868.14c-.269.135-.49.35-.632.616a5.562 5.562 0 0 0-.34 2.22v9.603c-.045.76.088 1.52.39 2.22a1.478 1.478 0 0 0 1.45.736 1.35 1.35 0 0 0 1.4-.747 5.94 5.94 0 0 0 .31-2.21v-2.017h4.14v1.745a7.361 7.361 0 0 1-1.23 4.65c-.88 1.11-2.4 1.655-4.56 1.655-2.16 0-3.85-.605-4.78-1.846Zm16.251-19.59h4.74l4 21.184h-3.94l-.71-4.68h-3.32l-.8 4.65h-4l4.03-21.154Zm3.65 13.84-1.26-8.513-1.25 8.513h2.51Zm8.16-10.652h-3.24v-3.188h10.72v3.188h-3.2v17.966h-4.29l.01-17.966Z" fill="#111"/><path d="M129.616 22.777h8.13v2.2h-5.2v6.99h4.22v2.088h-4.22v7.757h5.25v2.119h-8.18V22.777Zm10.541 0h2l6 14.052V22.777h2.44v21.184h-1.87l-6-14.445V43.93h-2.48l-.09-21.154Zm13.671 0h8.12v2.2h-5.2v6.99h4.26v2.088h-4.22v7.757h5.22v2.119h-8.18V22.777Zm10.53 0h4.22a6.956 6.956 0 0 1 4.67 1.322c1 .878 1.49 2.31 1.49 4.297 0 2.69-.863 4.334-2.59 4.933l3 10.602h-2.84l-2.75-9.926h-2.27v9.926h-2.93V22.777Zm4 9.08a3.844 3.844 0 0 0 2.7-.768 3.614 3.614 0 0 0 .82-2.733 5.95 5.95 0 0 0-.29-2.018 1.89 1.89 0 0 0-1-1.09 4.723 4.723 0 0 0-2.05-.352h-1.29v7l1.11-.04Zm10.321 10.51a9.393 9.393 0 0 1-1.27-5.397v-7.06a13.71 13.71 0 0 1 .5-4.036 4.515 4.515 0 0 1 1.74-2.43 5.87 5.87 0 0 1 3.36-.848 5.216 5.216 0 0 1 2.253.28c.722.258 1.38.672 1.927 1.213a7.108 7.108 0 0 1 1.28 4.67v.787h-2.75v-.656a11.691 11.691 0 0 0-.18-2.34 2.02 2.02 0 0 0-.76-1.24 2.98 2.98 0 0 0-1.72-.414 2.504 2.504 0 0 0-1.81.565 2.587 2.587 0 0 0-.77 1.493c-.127.83-.184 1.67-.17 2.511v7.859a7.63 7.63 0 0 0 .59 3.49 2.832 2.832 0 0 0 2.257 1.058 2.808 2.808 0 0 0 1.238-.316c.384-.199.717-.484.975-.833a8.253 8.253 0 0 0 .61-3.682v-1.493h-2.66V33.46h5.3v10.47h-1.81l-.29-2.43a3.723 3.723 0 0 1-1.4 2.002 3.665 3.665 0 0 1-2.33.691 4.627 4.627 0 0 1-2.288-.38 4.668 4.668 0 0 1-1.822-1.446Zm16.02-5.901-4.53-13.689h2.72l3.21 10.209 3.16-10.209h2.75l-4.5 13.689v7.465h-2.8l-.01-7.465Z" fill="#444"/></g><defs><clipPath id="a"><path fill="#fff" d="M0 0h202v60H0z"/></clipPath></defs></svg>